<svg width="1317" height="316" viewBox="0 0 1317 316" fill="none" xmlns="http://www.w3.org/2000/svg">
<path d="M1094.23 278.662C1094 279.713 1093.85 280.78 1093.77 281.854C1093.77 287.222 1093.77 292.591 1093.77 297.959C1093.83 298.79 1093.72 299.623 1093.46 300.413C1092.52 302.627 1090.67 302.793 1089.34 300.801C1087.06 297.9 1085.07 294.779 1083.4 291.484C1081.15 285.822 1080.2 279.725 1080.62 273.644C1081.08 269.074 1080.69 264.458 1079.47 260.029C1077.93 255.633 1077.17 251 1077.22 246.34C1077.15 242.101 1076.7 237.878 1075.86 233.722C1075.54 232.767 1074.88 231.961 1074.01 231.452C1072.58 230.577 1071.42 229.301 1070.7 227.78C1069.97 226.26 1069.71 224.561 1069.94 222.892C1070.12 221.232 1069.94 219.535 1069.94 217.856C1069.94 213.557 1068.9 212.321 1064.62 211.731C1060.64 211.14 1059.35 207.857 1061.47 203.761C1064.35 198.226 1067.19 192.692 1070.08 187.268C1070.47 186.72 1070.9 186.207 1071.38 185.737C1071.89 185.054 1072.93 183.892 1072.78 183.689C1072.08 182.859 1071.04 181.697 1070.14 181.715C1066.45 181.715 1063.83 179.575 1060.92 178.025C1057.22 175.794 1053.67 173.329 1050.29 170.646C1049.32 169.994 1048.53 169.122 1047.96 168.103C1047.4 167.083 1047.08 165.944 1047.04 164.779C1047.08 161.338 1045.75 158.021 1043.35 155.555C1042.78 155.17 1042.16 154.854 1041.51 154.614C1041.2 155.251 1040.98 155.928 1040.86 156.625C1040.86 159.632 1040.86 162.658 1040.86 165.683C1040.86 166.403 1040.11 167.122 1039.7 167.842C1039.22 167.104 1038.46 166.421 1038.32 165.628C1037.76 162.713 1037.38 159.761 1037.01 156.809C1036.82 155.589 1036.74 154.354 1036.78 153.12C1036.99 149.633 1037.04 149.633 1033.67 149.559C1031.23 149.523 1028.87 148.672 1026.97 147.141C1025.07 145.609 1023.74 143.486 1023.19 141.11C1022.98 140.233 1022.52 139.434 1021.88 138.804C1021.56 138.51 1021.18 138.289 1020.77 138.155C1020.36 138.021 1019.93 137.978 1019.5 138.029C1018.94 138.232 1018.56 139.412 1018.43 140.206C1018.24 141.442 1018.43 142.715 1018.3 143.895C1018.16 144.85 1018.32 145.822 1018.74 146.687C1019.17 147.552 1019.84 148.27 1020.68 148.747C1023.21 150.371 1023.37 151.57 1021.49 153.858C1018.8 157.178 1015.96 160.296 1013.1 163.543C1011.95 164.871 1010.85 166.237 1009.83 167.676C1009.29 168.366 1008.99 169.221 1008.99 170.102C1008.99 170.982 1009.29 171.837 1009.83 172.528C1010.35 173.935 1010.5 175.455 1010.26 176.937C1010.12 177.68 1009.81 178.38 1009.35 178.985C1007.17 182.674 1010.57 184.316 1012.4 186.364C1014.22 188.412 1015.02 189.556 1013 191.751C1010.11 194.869 1010.9 199.001 1009.31 202.488C1008.72 203.835 1009.31 205.145 1011.47 204.333C1013.63 203.521 1018 206.897 1018.28 209.333C1018.56 211.768 1019.18 213.631 1019.54 215.79C1019.78 216.851 1019.78 217.956 1019.54 219.018C1017.97 223.464 1016.25 227.855 1014.52 232.246C1012.21 238.075 1009.92 243.924 1007.49 249.698C1004.94 255.889 1003.99 262.619 1004.72 269.272C1005.2 274.29 1006.34 279.253 1007.27 284.215C1007.84 287.296 1008.63 290.34 1009.11 293.44C1009.24 294.251 1008.54 295.174 1008.21 296.041C1007.34 295.543 1006.07 295.229 1005.66 294.473C1004.24 291.929 1003.01 289.284 1001.97 286.558C999.26 279.179 996.844 271.541 994.076 264.088C991.936 258.35 989.261 252.816 987.176 247.06C985.719 243.038 985.332 238.647 983.653 234.681C980.221 226.102 980.738 217.192 980.83 208.299C980.83 205.458 981.679 202.617 981.586 199.813C981.42 194.832 981.402 189.796 979.557 185.054C979.35 183.904 979.257 182.736 979.28 181.567C978.653 177.324 978.45 172.749 975.831 169.354C974.17 167.196 973.543 164.705 972.141 162.565C970.148 159.706 969.964 156.311 969.613 153.027C969.337 150.592 968.304 149.67 965.924 149.781C962.843 149.947 959.725 149.781 956.699 149.781C955.881 149.852 955.091 150.117 954.395 150.554C953.7 150.992 953.118 151.589 952.7 152.296C952.281 153.003 952.038 153.8 951.989 154.62C951.94 155.441 952.088 156.261 952.419 157.012C953.061 157.792 953.412 158.77 953.412 159.78C953.412 160.789 953.061 161.768 952.419 162.547C951.7 163.599 952.327 165.573 952.29 167.122C952.231 167.793 952.126 168.458 951.977 169.115C951.46 168.69 950.667 168.377 950.482 167.842C949.468 164.982 948.914 161.92 947.641 159.189C946.796 157.718 946.453 156.011 946.662 154.328C946.872 152.644 947.624 151.074 948.804 149.854C948.97 149.67 948.527 148.581 948.121 148.323C947.203 147.735 946.193 147.304 945.132 147.05C942.07 146.386 938.915 146.109 935.908 145.205C931.628 143.914 927.551 141.977 925.54 137.623C925.212 136.17 925.057 134.684 925.079 133.195C924.99 132.253 924.594 131.365 923.953 130.668C923.566 130.373 922.219 130.889 921.592 131.387C920.614 132.178 919.474 132.744 918.253 133.047C917.032 133.349 915.76 133.381 914.526 133.14C913.901 132.965 913.242 132.95 912.609 133.096C911.977 133.243 911.391 133.546 910.907 133.977C910.422 134.409 910.053 134.955 909.834 135.567C909.616 136.178 909.554 136.834 909.656 137.475C909.656 139.892 909.656 142.327 909.656 144.763C909.606 145.623 909.501 146.48 909.342 147.327L908.438 147.475C908.016 146.625 907.7 145.726 907.497 144.799C907.294 143.139 907.497 141.442 907.276 139.781C906.87 135.298 904.324 133.306 899.896 133.251C897.601 133.306 895.328 132.799 893.273 131.775C890.174 129.93 887.093 130.262 883.828 130.373C880.423 130.53 877.012 130.419 873.626 130.041C872.611 129.911 871.43 128.491 870.951 127.402C870.016 125.094 869.276 122.712 868.737 120.281C868.689 119.718 868.524 119.17 868.253 118.673C867.983 118.176 867.613 117.74 867.165 117.394C866.718 117.047 866.204 116.797 865.655 116.659C865.106 116.521 864.535 116.498 863.977 116.592C861.749 116.532 859.546 116.121 857.446 115.374C853.757 114.212 851.266 115.872 850.952 120.54C851.043 122.921 851.333 125.291 851.819 127.624C852.078 130.114 852.151 132.623 852.354 135.114C852.56 140.535 851.188 145.898 848.406 150.555C847.129 153.065 846.025 155.661 845.104 158.322C845.047 158.75 845.089 159.186 845.226 159.595C845.364 160.005 845.593 160.377 845.897 160.684C846.749 161.38 847.345 162.339 847.593 163.411C847.84 164.483 847.724 165.607 847.263 166.606C846.1 169.687 845.086 172.841 843.683 175.83C842.281 178.819 844.274 180.627 845.215 182.803C846.949 186.788 848.905 190.663 850.749 194.666C851.49 196.388 852.005 198.199 852.281 200.053C852.391 200.809 851.635 201.695 851.266 202.543C850.377 202.063 849.573 201.44 848.886 200.699C847.595 198.854 846.746 196.548 845.344 194.74C843.271 191.84 840.876 189.185 838.204 186.825C835.456 184.611 831.932 183.394 828.98 181.291C827.403 180.189 826.209 178.621 825.567 176.808C824.663 173.727 824.903 170.277 823.722 167.288C822.449 163.709 821.767 159.909 818.594 156.957C816.901 155.111 815.641 152.912 814.904 150.519C813.28 146.312 811.915 141.995 810.55 137.697C810.442 136.9 810.499 136.09 810.716 135.317C810.826 134.724 810.974 134.139 811.159 133.564C810.365 133.564 809.314 133.269 808.853 133.564C806.602 135.003 805.015 134.007 803.595 132.347C803.177 131.805 802.893 131.173 802.765 130.502C802.303 128.657 801.861 126.812 801.529 124.967C800.864 121.278 800.403 117.588 799.684 113.898C799.001 110.577 797.839 107.367 797.212 104.047C796.179 98.6596 792.046 95.4311 788.873 91.5385C788.625 91.1997 788.276 90.9478 787.877 90.8189C784.703 90.247 781.53 89.546 778.32 89.2877C777.74 89.3516 777.184 89.5521 776.696 89.8728C776.209 90.1935 775.804 90.6253 775.516 91.1326C774.262 93.8999 773.542 96.9254 772.306 99.7112C771.398 101.647 770.271 103.473 768.948 105.154C767.894 106.349 766.753 107.465 765.535 108.493C762.362 111.666 762.215 114.415 764.244 118.584C765.301 120.834 765.926 123.262 766.089 125.742C766.384 129.838 766.218 133.952 766.089 138.066C766.089 140.114 766.864 140.981 768.912 140.888C773.395 140.685 776.457 143.988 775.553 149.264C774.815 153.544 772.73 156.975 771.273 160.813C769.815 164.65 768.708 168.635 767.583 172.583C766.624 176.014 765.738 179.483 765.056 182.951C764.761 184.242 764.761 185.608 764.594 186.936C764.207 189.648 763.93 192.471 763.34 195.09C763.156 195.957 762.104 196.621 761.495 197.396C760.684 196.603 759.392 195.92 759.189 194.998C758.414 191.585 758.285 188.024 757.344 184.685C755.315 177.177 756.348 169.521 755.776 161.957C755.216 158.703 754.37 155.505 753.249 152.4C752.557 150.281 752.008 148.118 751.607 145.925C749.965 134.155 748.231 122.403 749.559 110.467C750.002 106.666 750.297 102.977 747.511 99.785C746.995 99.1762 747.105 98.0323 746.847 97.1652C745.906 93.9183 745.002 90.6529 743.914 87.4613C743.323 85.7825 741.866 85.7087 740.704 86.871C739.136 88.4022 736.645 89.6751 738.435 92.6638C738.693 93.125 738.195 94.0659 738.01 94.767C737.232 97.6612 737.277 100.715 738.139 103.585C738.562 106.166 738.606 108.795 738.269 111.389C738.269 112.109 737.623 112.791 737.549 113.511C736.977 119.045 736.461 124.451 735.926 129.93C735.926 130.428 736.055 131.055 735.815 131.424C735.339 132.026 734.808 132.582 734.228 133.085C733.859 132.457 733.177 131.83 733.158 131.24C733.054 129.228 733.097 127.212 733.287 125.207C733.97 118.344 731.812 111.795 731.313 105.08C730.852 98.8441 730.391 92.6084 730.373 86.3728C730.212 83.64 729.436 80.9788 728.103 78.5875C727.79 77.9418 726.72 77.6467 726 77.2039C725.521 77.9972 724.69 78.772 724.617 79.6022C724.248 83.5871 724.266 87.5905 723.786 91.5385C723.476 93.8259 722.856 96.0604 721.941 98.1799C720.355 101.962 721.13 105.559 721.573 109.47C721.923 114.261 721.923 119.07 721.573 123.86C721.443 127.181 721.111 130.502 720.761 133.823C720.632 135.114 720.004 136.368 719.968 137.66C719.968 139.376 720.226 141.091 720.299 142.807C720.373 144.005 720.373 145.206 720.299 146.404C719.961 146.552 719.598 146.634 719.23 146.644C718.87 145.518 718.574 144.373 718.344 143.213C717.52 138.072 716.702 132.912 715.89 127.735C715.613 126.598 715.453 125.436 715.411 124.266C715.651 120.706 714.156 117.68 712.809 114.544C711.359 111.669 710.31 108.609 709.692 105.449C709.415 103.272 710.669 100.837 711.407 98.5858C712.145 96.3351 713.492 94.6563 713.621 92.6454C713.502 90.6262 712.948 88.6566 711.998 86.871C711.65 85.5964 710.827 84.5036 709.698 83.8173C708.569 83.1311 707.22 82.9034 705.928 83.1813C701.87 83.7532 698.715 81.0412 695.412 79.2332C693.309 78.071 691.557 76.3 689.546 74.9532C688.836 74.6313 688.073 74.4436 687.295 74.3997C687.106 75.1152 687.05 75.8593 687.129 76.5951C688.42 80.8014 687.24 84.7678 685.875 88.5867C684.306 92.9405 682.185 97.0915 680.34 101.353C679.067 104.305 677.813 107.257 676.65 110.264C676.378 111.14 676.272 112.06 676.337 112.976C676.613 121.665 676.761 130.373 677.278 139.044C677.628 145.039 678.514 150.998 679.122 156.994C678.996 157.953 678.689 158.879 678.218 159.724C677.536 159.042 676.373 158.451 676.244 157.64C674.467 151.342 673.366 144.873 672.961 138.342C672.47 135.248 671.622 132.22 670.433 129.321C669.898 127.476 669.252 125.724 668.736 123.916C668.286 121.587 667.669 119.293 666.891 117.053C665.304 113.566 666.19 110.19 666.596 106.722C667.002 103.253 667.112 100.209 667.278 96.9623C667.224 96.4073 666.953 95.8963 666.522 95.5418C666.393 95.4126 665.563 95.7447 665.341 96.0583C662.958 98.9524 660.817 102.038 658.94 105.283C657.847 107.351 657.256 109.648 657.214 111.988C657.172 114.327 657.681 116.644 658.7 118.75C659.208 119.579 659.438 120.547 659.359 121.516C659.279 122.485 658.893 123.403 658.257 124.137C656.984 125.576 655.619 126.923 654.235 128.251C652.389 130.215 650.423 132.063 648.35 133.786C642.631 138.121 643.258 143.471 645.269 149.375C646.6 153.412 647.297 157.632 647.336 161.883C647.656 165.158 648.445 168.37 649.679 171.421C650.206 172.634 650.439 173.956 650.359 175.276C650.279 176.597 649.888 177.881 649.217 179.022C647.725 181.779 646.544 184.693 645.694 187.711C644.642 191.032 643.849 194.426 643.129 197.821C642.705 199.665 641.912 201.639 643.812 203.964C645.177 201.16 646.302 198.798 647.502 196.474C647.866 195.641 648.4 194.893 649.07 194.279C650.398 193.245 651.634 193.817 652.04 195.478C652.057 195.557 652.057 195.639 652.04 195.717C651.597 203.558 651.154 211.399 650.656 219.221C650.306 224.589 649.125 229.976 651.413 235.234C652.593 237.928 653.793 240.64 654.715 243.444C655.084 244.753 655.084 246.138 654.715 247.447C653.92 250.243 652.212 252.691 649.863 254.402C647.483 256.247 645.915 259.033 643.923 261.357C643 262.446 641.93 263.405 640.989 264.365C640.454 263.922 640.214 263.83 640.196 263.719C639.089 256.155 638.074 248.591 636.838 241.064C636.301 238.47 635.561 235.923 634.624 233.445C633.444 229.755 632.3 226.195 630.935 222.671C629.625 219.424 629.385 215.9 627.245 212.801C626.009 211.085 626.636 207.635 627.245 205.126C628.37 199.739 628.961 194.463 626.968 189.187C626.83 188.795 626.719 188.395 626.636 187.988C625.677 183.56 624.607 179.151 623.795 174.705C623.471 172.463 623.323 170.199 623.352 167.934C623.223 162.012 623.076 156.072 623.149 150.131C623.403 148.51 623.829 146.92 624.422 145.39C624.699 144.228 625.382 142.604 624.884 141.921C621.913 137.844 623.98 134.431 626.12 131.129C627.648 128.941 629.357 126.886 631.23 124.986C632.171 123.953 632.798 123.252 631.765 121.794C631.585 121.333 631.52 120.836 631.575 120.344C631.629 119.853 631.802 119.382 632.079 118.971C633.923 116.555 636.119 114.304 638.185 111.998C639.309 110.852 640.028 109.372 640.234 107.78C640.441 106.189 640.123 104.574 639.329 103.179C639.086 102.739 638.906 102.267 638.794 101.777C638.24 98.6411 637.724 95.468 637.133 92.3133C637.021 91.7497 636.737 91.2346 636.322 90.8374C631.175 86.1699 628.204 80.0819 625.548 73.8832C624.667 71.2194 624.05 68.4759 623.703 65.692C623.368 63.4688 622.918 61.2644 622.356 59.0874C622.082 58.6749 621.72 58.3284 621.296 58.0731C620.871 57.8179 620.395 57.6602 619.903 57.6115C614.663 57.0027 609.405 56.5969 604.147 56.0803C603.397 56.0908 602.658 55.8996 602.007 55.5268C600.162 53.9033 599.037 55.0472 598.318 56.6337C597.487 58.4786 596.141 60.5264 597.986 62.7033C598.273 63.1992 598.384 63.7783 598.299 64.3453C597.889 67.7425 597.698 71.1625 597.727 74.5842C598.133 80.1188 596.141 84.6387 593.835 89.3431C593.164 90.919 593.104 92.6885 593.669 94.3057C594.403 95.9322 594.782 97.6962 594.782 99.4806C594.782 101.265 594.403 103.029 593.669 104.655C593.315 105.591 593.151 106.589 593.189 107.589C593.189 113.695 593.392 119.839 593.189 125.945C592.986 132.051 592.23 137.918 591.566 143.877C591.289 146.423 590.532 148.913 590.182 151.441C590.194 152.351 590.35 153.254 590.643 154.116L591.436 154.208C592.58 151.902 593.798 149.596 594.886 147.253C597.856 140.759 600.882 134.339 603.668 127.716C604.664 125.373 604.885 122.716 605.752 120.337C606.359 119.262 607.124 118.286 608.022 117.44C608.752 118.314 609.372 119.274 609.866 120.3C610.724 122.179 611.194 124.212 611.25 126.277C610.697 131.203 609.405 136.036 608.778 140.944C608.341 145.105 608.126 149.286 608.132 153.47C608.132 157.787 609.867 161.68 610.955 165.757C612.043 169.834 612.191 174.483 612.929 178.837C613.139 180.537 613.725 182.17 614.645 183.615C615.473 184.6 616.048 185.771 616.321 187.028C616.594 188.285 616.557 189.589 616.213 190.829C613.898 198.949 613.307 207.464 614.479 215.826C614.866 218.096 615.973 220.217 616.563 222.449C616.917 223.597 616.98 224.814 616.748 225.992C615.549 230.456 613.999 234.81 612.855 239.275C611.711 243.739 610.9 248.148 610.051 252.613C609.479 255.546 609.202 258.535 608.63 261.468C607.874 265.361 605.328 268.294 602.893 271.246C600.753 273.81 598.502 276.301 596.178 278.718C595.241 279.885 594.056 280.831 592.709 281.485C588.485 282.998 585.33 286.115 582.101 288.864C580.575 290.516 579.215 292.314 578.043 294.233C577.392 295.093 576.6 295.835 575.7 296.428C572.471 298.421 570.313 297.572 569.833 293.808C569.614 291.341 569.757 288.855 570.257 286.429C571.088 281.743 572.102 277.205 569.87 272.5C569.462 270.89 569.462 269.203 569.87 267.593C570.257 264.309 571.143 261.062 571.272 257.797C571.429 253.27 571.355 248.738 571.051 244.219C570.866 241.009 570.018 237.817 569.907 234.607C569.913 231.292 570.086 227.979 570.423 224.682C570.423 224.368 570.755 224.055 570.755 223.741C571.032 217.93 573.633 212.284 572.471 206.399C571.669 202.755 570.571 199.183 569.187 195.717C567.574 191.709 566.663 187.453 566.494 183.136C566.582 180.458 565.836 177.82 564.359 175.585C562.881 173.351 560.746 171.631 558.247 170.664C552.252 168.063 550.425 165.978 551.237 157.843C552.086 149.282 553.82 140.778 552.879 132.144C552.267 127.97 551.436 123.832 550.388 119.746C549.925 117.24 549.271 114.773 548.433 112.367C547.047 108.219 545.261 104.215 543.101 100.412C542.153 99.1319 541.619 97.5925 541.569 96.0002C541.52 94.4078 541.958 92.8382 542.824 91.5015C544.126 89.2993 545.68 87.2562 547.455 85.4135C547.756 85.1893 548.006 84.9046 548.191 84.5779C548.375 84.2511 548.489 83.8894 548.526 83.516C548.562 83.1425 548.52 82.7656 548.403 82.4093C548.285 82.053 548.094 81.7253 547.842 81.4471C544.669 77.0379 541.478 72.6471 538.323 68.2379C535.491 64.4179 533.739 59.9064 533.25 55.1763C532.91 52.9528 532.341 50.7703 531.552 48.664C531.423 48.2581 530.242 47.7231 530.058 47.8891C529.302 48.4979 528.047 49.5311 528.213 50.103C529.486 54.8812 526.461 58.3679 524.69 62.1683C523.822 64.0132 522.088 65.5628 521.24 67.463C521.055 68.0534 521.008 68.6785 521.104 69.2896C521.2 69.9008 521.436 70.4815 521.793 70.9867C522.957 72.1946 523.693 73.7516 523.886 75.4181C524.08 77.0847 523.72 78.7686 522.863 80.211C521.953 82.4409 521.333 84.7784 521.018 87.1662C520.336 90.4684 520.004 93.863 519.173 97.1099C517.88 102.762 517.463 108.58 517.937 114.359C518.034 116.705 517.585 119.041 516.624 121.182C515.664 123.324 514.219 125.214 512.403 126.701C509.783 129.1 507.883 131.369 508.713 135.335C509.082 137.18 508.086 139.32 507.569 141.294C506.685 145.315 505.551 149.277 504.175 153.157C500.854 161.403 504.95 169.594 503.953 177.804C503.953 178.321 504.617 178.929 504.968 179.501C505.392 178.948 506.056 178.45 506.204 177.841C507.256 173.561 508.16 169.262 509.211 164.927C509.293 164.584 509.454 164.265 509.682 163.996C509.909 163.727 510.197 163.515 510.521 163.377C510.883 163.367 511.241 163.447 511.564 163.612C511.886 163.776 512.162 164.019 512.366 164.318C512.95 165.219 513.293 166.254 513.362 167.325C513.362 171.863 513.159 176.383 513.085 180.903C513.085 184.593 513.085 188.43 513.085 192.194C512.975 195.515 512.606 198.835 512.384 202.156C512.139 204.485 512.022 206.825 512.034 209.167C512.311 215.937 509.451 221.472 505.448 226.545C502.57 230.143 502.348 231.379 504.285 235.456C505.085 236.973 505.567 238.638 505.7 240.348C505.833 242.058 505.616 243.777 505.06 245.399C504.396 247.244 504.949 249.643 504.931 251.783C505.06 253.404 505.06 255.032 504.931 256.653C504.585 259.865 503.924 263.035 502.957 266.117C501.278 270.582 501.887 275.139 501.426 279.658C500.836 282.639 500.016 285.569 498.972 288.422C498.363 290.746 497.921 293.107 497.404 295.45C496.47 298.339 495.851 301.321 495.559 304.343C495.559 306.944 496.943 309.527 497.533 312.165C497.574 313.123 497.462 314.082 497.201 315.006C496.297 314.692 494.969 314.637 494.581 314.01C491.888 309.619 489.287 305.173 486.851 300.616C484.416 296.059 482.184 291.613 480.099 287.001C478.015 282.389 476.262 278.017 474.565 273.423C473.53 270.365 472.734 267.232 472.185 264.051C471.97 262.212 471.97 260.355 472.185 258.516C472.699 253.965 472.976 249.39 473.015 244.809C472.628 241.453 471.809 238.16 470.58 235.013C469.517 231.874 468.285 228.795 466.89 225.789C464.694 220.644 460.887 216.352 456.042 213.557C450.932 210.753 448.534 206.178 445.896 201.547C443.054 196.64 440.619 191.493 437.612 186.788C435.278 183.116 434.001 178.871 433.922 174.52C433.84 169.859 433.221 165.222 432.078 160.702C431.677 158.913 430.951 157.212 429.938 155.684C426.765 150.963 424.918 145.478 424.588 139.8C424.186 138.116 423.5 136.512 422.558 135.059C420.994 132.609 420.138 129.774 420.086 126.867C420.455 118.922 420.701 110.977 420.824 103.032C420.824 100.707 420.215 98.3828 420.178 96.0583C420.068 90.5238 420.289 84.9892 420.178 79.5654C420.218 77.6755 419.877 75.7971 419.177 74.0414C418.477 72.2857 417.431 70.6886 416.101 69.3448C409.645 62.8965 404.124 55.5749 399.7 47.594C396.917 42.6422 392.532 38.7843 387.266 36.654C384.923 35.6393 382.857 34.0158 380.569 32.872C379.519 32.2539 378.289 32.0131 377.083 32.1894C376.492 32.3554 376.142 34.1265 376.142 35.1781C376.084 38.2344 376.456 41.2838 377.249 44.2363C378.378 49.2375 378.953 54.3478 378.964 59.4748C378.787 61.7047 378.27 63.8945 377.433 65.9687C377.304 66.1633 377.128 66.3226 376.922 66.4322C376.716 66.5417 376.486 66.598 376.252 66.596C376.02 66.5489 375.801 66.4498 375.613 66.306C375.424 66.1622 375.271 65.9775 375.164 65.7658C374.971 65.1282 374.971 64.4478 375.164 63.8103C377.009 58.534 375.053 53.2946 374.684 48.129C374.5 45.4355 373.928 41.8565 370.994 39.7718C368.504 38.0192 368.891 35.1781 369.15 32.5953C369.316 30.3814 368.91 29.4221 366.327 28.7026C362.487 27.3752 358.781 25.6889 355.258 23.6662C351.636 22.0021 348.102 20.1548 344.668 18.1316C339.521 14.9031 334.356 11.5639 330.924 6.32453C329.393 4.01846 328.304 3.59414 325.629 4.47967C323.785 5.12537 321.94 5.60503 320.242 6.32453C318.545 7.04402 317.161 7.85573 317.272 10.3278C317.272 11.9698 315.962 13.6301 315.427 15.3458C314.486 18.2607 313.878 21.3048 312.771 24.1458C311.682 26.9171 310.322 29.5743 308.712 32.0787C306.535 35.4363 303.971 38.5541 301.646 41.8195C301.121 42.4688 300.823 43.2724 300.798 44.1072C301.462 50.269 297.643 54.3277 294.304 58.7184C291.776 62.0392 289.655 65.6551 287.367 69.1235L288.253 69.806C289.23 68.6069 290.282 67.4631 291.204 66.227C292.048 64.7901 293.011 63.4263 294.082 62.1499C295.071 61.5348 296.166 61.1093 297.311 60.8954C297.514 61.8547 298.178 63.0169 297.846 63.718C296.222 67.2786 294.451 70.8023 292.514 74.1968C289.784 78.9934 287.939 83.9376 288.824 89.6013C289.064 91.151 289.452 92.2579 291.167 92.7191C292.883 93.1804 293.547 94.3795 292.275 96.0953C290.279 98.5732 288.431 101.167 286.74 103.862C284.286 108.161 282.146 112.662 279.895 117.071C279.748 117.366 279.6 117.846 279.729 118.031C281.445 120.595 279.471 123.012 279.545 125.41C279.674 127.463 279.915 129.508 280.264 131.535C280.264 132.181 281.002 132.974 280.799 133.38C279.268 136.479 280.799 139.394 280.966 142.42C281.15 145.002 279.896 147.733 279.121 150.352C277.276 156.57 273.272 161.292 268.826 165.775C268.029 166.498 267.399 167.386 266.981 168.377C266.843 168.837 266.803 169.321 266.863 169.798C266.923 170.274 267.083 170.733 267.332 171.144C268.974 173.266 270.118 178.874 268.66 180.996C265.849 185.114 262.813 189.074 259.565 192.858C257.963 194.418 256.087 195.669 254.03 196.548C251.207 198.19 249.091 200.818 248.09 203.927C246.799 207.063 245.415 210.181 244.4 213.391C243.404 216.191 242.633 219.066 242.094 221.988C241.061 227.892 240.194 233.82 239.493 239.773C239.176 243.016 239.035 246.274 239.069 249.532C239.069 251.063 238.976 252.687 237.224 252.871C235.471 253.056 235.195 251.488 234.715 250.03C232.829 244.942 231.97 239.531 232.187 234.109C232.719 229.758 233.526 225.444 234.604 221.195C235.121 218.704 235.767 216.214 236.449 213.816C236.8 212.543 237.925 211.288 237.777 210.126C237.598 207.656 236.894 205.254 235.711 203.078C233.018 198.928 234.383 194.943 235.711 191.087C236.855 187.674 236.818 183.818 234.254 181.512C230.564 178.265 232.114 174.262 232.409 170.443C232.575 168.137 233.387 165.849 233.35 163.58C233.35 159.669 232.593 155.776 232.556 151.865C232.701 149.202 233.028 146.551 233.534 143.932C233.643 143.442 233.681 142.939 233.645 142.438C232.704 137.937 234.752 134.099 235.933 129.948C237.224 125.853 237.107 121.443 235.6 117.422C233.755 112.939 231.911 108.4 230.324 103.825C228.738 99.25 227.28 94.7854 225.73 90.284C225.548 89.9449 225.255 89.6782 224.9 89.5276C224.199 90.0441 223.055 90.5422 223.055 91.2433C222.281 94.2873 219.882 95.9108 217.668 97.6449C215.455 99.3791 213.296 100.689 211.045 102.146C210.46 102.64 209.981 103.248 209.639 103.933C209.296 104.618 209.096 105.365 209.051 106.13C209.006 106.894 209.117 107.66 209.378 108.38C209.638 109.1 210.042 109.76 210.566 110.319C211.364 111.038 211.859 112.034 211.949 113.105C211.961 117.03 212.876 120.9 214.624 124.414C214.899 125.106 215.031 125.846 215.012 126.591C214.846 131.424 215.436 136.258 213.794 141.054C213.056 143.25 213.536 145.869 213.333 148.286C212.648 153.246 212.254 158.242 212.152 163.248C212.62 167.948 213.453 172.605 214.643 177.177C215.196 180.018 215.879 182.84 216.488 185.645C217.078 188.135 217.945 190.57 218.333 193.024C218.88 196.976 219.225 200.954 219.366 204.942C219.366 205.606 218.093 206.344 217.41 207.045C216.727 206.233 215.731 205.532 215.436 204.61C214.385 201.307 213.591 197.931 212.632 194.611C212.484 194.131 211.728 193.817 211.267 193.411C210.871 193.798 210.524 194.232 210.234 194.703C208.121 198.903 206.635 203.391 205.824 208.023C204.957 214.166 203.74 220.254 202.744 226.361C202.172 230.05 201.858 233.629 201.249 237.227C200.923 238.863 200.403 240.455 199.7 241.968C199.523 242.215 199.291 242.418 199.021 242.559C198.752 242.7 198.454 242.775 198.15 242.78C197.836 242.78 197.264 241.968 197.264 241.525C197.148 238.933 197.302 236.337 197.726 233.777C200.604 221.767 200.64 209.572 200.105 197.396C199.939 193.411 198.26 189.519 197.522 185.534C197.098 182.725 196.894 179.888 196.914 177.048C196.799 173.697 196.934 170.342 197.32 167.012C197.873 163.1 198.962 159.282 199.884 155.444C200.456 153.046 201.212 150.703 201.729 148.305C202.465 145.778 202.934 143.181 203.131 140.556C203.05 138.596 202.465 136.69 201.434 135.022C200.621 133.745 200.189 132.264 200.189 130.751C200.189 129.238 200.621 127.756 201.434 126.48C203.832 122.384 206.71 118.529 206.765 113.252C206.765 111.26 207.891 109.304 206.95 107.109C206.304 105.633 205.4 105.375 204.201 106.057C201.526 107.589 198.851 109.138 196.324 110.891C195.678 111.315 195.05 113.049 195.272 113.234C197.689 115.392 195.825 117.459 194.921 119.082C192.099 124.229 188.87 129.173 185.863 134.228C185.303 135.118 184.944 136.119 184.812 137.162C184.443 141.405 184.166 145.63 184 149.891C184 150.814 184.793 151.736 184.738 152.732C184.498 156.256 184.073 159.78 183.686 163.285C182.77 168.881 182.154 174.522 181.841 180.184C181.841 188.449 182.801 196.788 183.096 204.997C183.336 211.786 183.243 218.594 183.206 225.383C183.031 226.224 182.713 227.029 182.266 227.763C181.53 227.344 180.815 226.889 180.126 226.397C179.735 226.074 179.457 225.634 179.332 225.143C178.705 221.878 178.188 218.612 177.487 215.365C176.731 211.473 175.901 207.598 175.071 203.724C174.96 203.152 174.665 202.617 174.61 202.045C174.038 197.599 173.613 193.135 172.931 188.725C172.549 186.697 171.981 184.709 171.233 182.785C169.905 178.985 168.448 175.258 167.119 171.458C167.033 171.191 167.001 170.91 167.026 170.631C167.052 170.352 167.134 170.081 167.267 169.834C170.791 164.687 174.406 159.577 177.949 154.43C178.598 153.584 179 152.575 179.111 151.515C179.111 143.563 179.111 135.612 179 127.661C178.915 126.942 178.767 126.232 178.558 125.539C177.171 126.358 175.735 127.091 174.259 127.735C173.09 128.339 171.762 128.564 170.459 128.38C168.614 127.735 168.614 125.816 168.909 124.082C169.204 122.68 169.573 121.314 169.923 119.949L169.222 119.543C167.378 120.872 165.533 122.218 163.688 123.51C159.795 126.222 155.792 128.823 152.028 131.701C150.943 132.685 150.248 134.028 150.073 135.483C149.335 141.995 148.542 148.526 148.228 155.057C148.062 160.591 148.708 166.126 148.874 171.808C148.916 173.965 148.812 176.123 148.56 178.265C148.56 178.726 147.785 179.335 147.269 179.446C146.752 179.557 146.254 178.948 146.014 178.505C144.852 176.383 143.856 174.188 142.693 172.085C142.38 171.531 141.623 170.849 141.107 170.867C140.768 170.96 140.455 171.127 140.19 171.357C139.925 171.587 139.715 171.874 139.576 172.196C138.34 174.834 137.362 177.583 136.052 180.184C135.591 181.106 134.465 181.697 133.654 182.435C133.009 181.556 132.528 180.569 132.233 179.52C132.058 176.928 132.058 174.327 132.233 171.734C132.455 167.676 130.591 164.152 129.779 160.389C128.968 156.625 126.772 156.699 124.245 157.012C121.717 157.326 119.338 157.787 116.865 158.175C115.795 158.341 114.725 158.433 113.637 158.581C111.386 158.857 110.63 157.603 110.593 155.61C110.593 152.603 108.232 151.423 105.446 152.954C104.653 153.396 103.915 153.987 103.103 154.393C100.778 155.555 98.8782 156.791 100.391 159.927C100.686 160.555 100.059 161.938 99.4501 162.621C96.3507 166.163 95.6312 170.185 95.539 174.834C95.2807 190.072 94.5426 205.311 93.9707 220.549C93.9707 220.715 93.9707 220.918 93.9707 221.047C93.3065 222.099 92.6424 224.018 91.9414 224.036C90.0965 224.036 90.0965 222.394 90.0965 220.881C90.0965 214.498 89.912 208.115 90.0965 201.75C89.9679 198.509 89.262 195.316 88.0118 192.323C87.5635 191.038 87.4494 189.661 87.6799 188.32C88.8237 183.246 87.5322 178.376 86.702 173.469C86.702 173.302 86.3145 173.173 86.3514 173.21C82.6617 175.959 79.1751 178.745 75.4854 181.272C71.7957 183.8 67.8845 186.05 64.121 188.467C63.4125 188.981 62.7898 189.604 62.2762 190.312C59.472 193.836 56.7415 197.433 53.9189 200.938C53.6772 201.264 53.3703 201.535 53.0177 201.736C52.665 201.936 52.2745 202.06 51.8711 202.101C47.997 201.473 45.3773 203.946 43.1635 206.178C40.9497 208.41 40.1193 211.399 38.8464 214.148C38.6619 214.553 39.3446 215.697 39.898 215.992C41.2817 216.786 41.3923 217.634 40.5068 218.834C40.2669 219.166 39.935 219.608 39.9719 219.94C40.6545 224.257 37.7212 227.726 37.2231 231.766C37.2231 232.19 37.0202 232.596 36.9833 233.002L35.3228 250.916C35.3228 251.414 35.3227 252.041 35.1566 252.391C32.5185 256.081 33.8284 259.955 34.7324 263.811C35.0763 265.449 35.2372 267.119 35.212 268.792C35.212 269.253 34.5294 269.918 34.0313 270.121C33.5332 270.323 32.8876 269.733 32.7215 269.346C32.079 267.832 31.5729 266.264 31.2088 264.66C30.5262 261.431 30.3049 258.074 29.364 254.956C28.8659 253.351 27.1131 252.133 25.0469 249.716C24.4963 250.567 24.0562 251.485 23.7371 252.447C23.0729 256.026 20.0474 257.742 17.7228 259.826C14.0331 263.092 11.3766 266.671 11.5611 271.818C11.7087 275.674 8.81229 278.312 7.68693 281.669C7.28106 282.905 7.04117 284.197 6.7091 285.359C5.9896 288.126 5.65753 291.133 3.01939 292.831C2.06527 293.249 1.06052 293.54 0.0307264 293.698C-0.0604087 292.379 0.0514621 291.053 0.362675 289.768C1.13751 287.923 2.55813 286.466 3.44367 284.695C5.301 281.295 6.94614 277.783 8.36951 274.179C9.08602 271.615 9.5675 268.99 9.80833 266.339C10.3618 263.018 12.7418 261.062 15.011 258.959C17.6998 256.498 20.169 253.806 22.3904 250.916C24.9547 247.373 27.0579 243.536 29.3271 239.699C29.5383 239.246 29.6932 238.769 29.7883 238.278C30.3048 236.433 30.7844 234.589 31.3194 232.744C32.3156 229.275 33.1644 225.733 34.4004 222.339C36.3744 216.804 36.7249 210.735 40.5991 206.049C42.4987 203.935 44.579 201.99 46.8163 200.237C47.404 199.765 48.1493 199.535 48.901 199.592C49.9862 199.703 51.08 199.49 52.045 198.982C53.01 198.473 53.8031 197.69 54.3247 196.732C55.8366 195.035 57.1603 193.179 58.2727 191.198C59.9331 187.268 63.1062 185.091 66.5377 183.154C73.971 179.122 80.6799 173.878 86.3883 167.639C88.4213 165.422 91.0774 163.872 94.0076 163.193C94.4268 163.12 94.8239 162.952 95.1687 162.703C95.5136 162.454 95.7971 162.129 95.9979 161.754C96.1988 161.379 96.3117 160.963 96.3281 160.538C96.3444 160.113 96.2638 159.689 96.0923 159.3C95.2806 156.238 95.6126 154.614 98.1401 153.249C101.222 151.621 104.388 150.156 107.623 148.858C108.643 148.462 109.743 148.31 110.833 148.415C112.678 148.544 114.154 149.448 113.988 151.552C113.822 153.655 114.928 154.43 117.013 154.227C119.762 153.931 122.548 153.692 125.278 153.655C127.781 153.609 130.283 153.738 132.768 154.042C134.742 154.3 135.664 153.729 135.535 151.699C135.443 150.186 135.535 148.655 135.314 147.179C134.336 141.405 135.628 138.453 140.406 135.317C144.797 132.439 149.101 129.469 153.32 126.406C158.947 122.384 164.5 118.215 170.089 114.138C171.676 112.957 173.779 113.861 174.037 116.167C174.009 117.558 173.811 118.939 173.447 120.281C173.318 121.37 173.3 122.458 173.226 123.547C174.119 123.339 175 123.08 175.864 122.772C180.587 120.743 185.31 118.695 189.996 116.536C190.604 116.26 191.49 115.263 191.379 114.821C190.217 109.913 193.851 108.031 196.914 106.057C203.629 101.741 210.547 97.7556 217.207 93.3833C218.431 92.2008 219.36 90.7473 219.919 89.1401C220.785 86.9014 221.853 84.7463 223.111 82.7016C224.45 81.552 226.024 80.7084 227.723 80.2295C229.27 79.7032 230.786 79.0872 232.261 78.3846C234.623 76.9825 236.781 75.2668 239.106 73.7909C239.862 73.2928 241.209 72.6286 241.652 72.9423C242.526 73.7412 243.201 74.7329 243.625 75.8387C243.828 76.2261 243.625 76.8534 243.625 77.3146C243.77 77.763 244.08 78.1392 244.493 78.3661C244.696 78.4768 245.286 78.1263 245.47 77.8496C248.625 73.0714 252.425 68.7545 254.695 63.3491C256.207 59.6593 257.905 55.9696 261.65 53.5344C263.9 52.0585 265.118 49.0883 267.184 47.1696C270.413 44.1441 274.029 41.5428 277.276 38.5542C277.777 38.0849 278.169 37.5111 278.424 36.8735C278.679 36.2359 278.791 35.55 278.752 34.8645C277.128 28.2414 281.242 24.6624 285.707 21.397C289.71 18.3989 293.887 15.6392 298.215 13.1321C302.809 10.5308 307.642 8.33539 312.42 6.06622C316.387 4.22136 320.445 2.52409 324.393 0.642337C327.511 -0.851997 329.688 0.384071 331.588 3.07756C333.98 6.47752 336.894 9.47854 340.222 11.9698C344.101 14.6102 348.199 16.9125 352.472 18.8511C358.007 21.5815 363.301 24.6624 369.5 26.0276C375.699 27.3928 382.414 28.7395 387.949 32.9273C390.476 34.7722 394.092 35.3626 396.454 37.3919C399.269 39.9857 401.693 42.9749 403.648 46.2657C408.026 53.7153 413.387 60.5412 419.588 66.5591C421.297 68.007 423.36 68.9747 425.565 69.3632C426.637 69.5501 427.651 69.9798 428.53 70.6194C429.41 71.2589 430.131 72.0914 430.639 73.053C433.775 78.5875 438.885 81.7238 444.069 84.6571C450.489 88.3468 457.241 91.3909 463.754 94.8776C465.442 95.9656 467.001 97.2404 468.403 98.678C470.156 100.228 471.964 100.375 473.476 98.678C474.576 97.4296 475.959 96.4632 477.51 95.8597C479.06 95.2562 480.732 95.0333 482.387 95.2097C484.52 95.0579 486.558 94.2672 488.235 92.9406C490.578 91.2617 490.689 88.8818 489.158 86.2621C488.664 85.4825 488.226 84.6688 487.848 83.827C486.445 80.3033 486.464 78.071 489.692 75.7649C494.401 72.429 498.865 68.7607 503.049 64.788C506.593 61.0159 509.901 57.0297 512.956 52.8518C515.207 50.0292 517.255 47.1512 521.406 46.8007C523.285 46.5094 525.097 45.8846 526.756 44.9558C531.903 42.5022 536.109 44.7344 536.552 50.3428C537.015 56.9209 539.459 63.2047 543.562 68.3671C550.185 76.7612 556.624 85.3028 563.099 93.8261C563.634 94.5271 563.763 95.5418 564.243 96.2797C564.833 97.036 565.487 97.7396 566.199 98.3829C568.634 94.2504 571.051 90.5053 573.135 86.5573C574.427 83.979 576.243 81.6989 578.467 79.8627C580.691 78.0265 583.273 76.6748 586.049 75.8941C589.186 74.9532 590.219 72.2043 591.16 69.8429C593.004 65.0094 594.314 59.9545 595.975 55.0841C596.397 53.9088 597.022 52.8163 597.82 51.8556C598.015 51.4854 598.291 51.1641 598.628 50.9154C598.965 50.6666 599.353 50.4969 599.764 50.4189C600.175 50.341 600.599 50.3567 601.003 50.4648C601.407 50.573 601.782 50.7709 602.1 51.0438C604.54 52.6771 607.453 53.4557 610.383 53.2577C614.073 53.0918 617.769 53.1472 621.452 53.4237C625.88 53.7004 626.784 55.2685 627.245 59.5671C627.651 63.552 629.09 67.4262 629.754 71.3926C630.848 76.2978 633.215 80.8282 636.617 84.528C639.326 87.4548 642.43 89.9884 645.841 92.055C648.276 93.6785 650.177 92.3133 650.213 89.38C650.213 83.089 650.213 82.9968 656.689 83.4026C661.708 83.5526 666.667 82.273 670.987 79.7129C675.746 77.1855 680.322 74.2706 685.118 71.7801C687.664 70.4702 690.431 69.8245 692.977 72.2228C696.68 75.5859 701.26 77.8311 706.187 78.6983C709.36 79.344 712.422 80.5431 715.595 81.3548C716.492 81.3912 717.367 81.0731 718.03 80.4693C720.226 78.6245 722.2 76.5951 724.432 74.8056C725.554 73.8641 726.871 73.1836 728.288 72.8132C731.11 72.2044 732.254 73.4589 732.863 76.3184C733.675 79.7726 734.66 83.1838 735.815 86.5389C736.239 87.8672 737.365 87.6458 737.807 86.5389C739.062 83.7347 741.866 83.2366 744.154 82.0559C745.998 81.0965 747.271 81.8898 747.954 83.9007C748.637 85.9116 749.614 87.8672 750.278 89.915C750.703 91.2433 750.629 92.7007 751.016 94.0474C751.412 95.097 751.9 96.1095 752.474 97.073C753.396 96.6411 754.295 96.1608 755.167 95.634C758.857 93.0881 761.182 89.2877 763.377 85.4135C763.716 84.8995 764.165 84.4674 764.691 84.1483C765.218 83.8292 765.808 83.6312 766.421 83.5687C768.565 83.6795 770.695 83.9821 772.786 84.4726C773.192 84.4726 773.579 84.7678 773.985 84.8232C779.04 85.3766 784.095 85.8379 789.113 86.5389C790.393 86.737 791.58 87.3304 792.507 88.2361C794.725 90.4901 796.709 92.9625 798.429 95.6156C800.005 98.4082 801.284 101.357 802.248 104.416C803.314 107.634 804.171 110.919 804.812 114.249C805.636 118.223 806.252 122.238 806.657 126.277C807.026 130.133 808.262 130.908 811.768 129.284C814.701 127.937 817.782 126.978 820.789 125.797C823.796 124.617 826.859 123.122 830.013 122.108C831.916 121.748 833.852 121.593 835.788 121.647C837.037 121.726 838.29 121.563 839.477 121.167C841.98 120.004 844.038 118.063 845.344 115.632C847.502 111.205 851.543 111.075 855.712 111.666C860.213 112.312 864.715 113.031 869.198 113.714C870.253 114.089 871.186 114.744 871.897 115.608C872.609 116.472 873.072 117.514 873.238 118.621C873.708 120.782 874.324 122.908 875.083 124.986C875.152 125.184 875.267 125.364 875.417 125.512C875.568 125.659 875.75 125.769 875.95 125.834C879.215 126.24 882.665 127.366 885.709 126.683C888.51 125.874 891.515 126.172 894.104 127.513C895.506 128.233 896.815 129.174 898.273 129.745C899.247 130.204 900.351 130.303 901.391 130.022C905.911 127.882 910.615 128.989 915.282 128.86C917.677 129.02 920.073 128.582 922.256 127.587C926.462 125.318 929.746 127.679 929.451 132.365C929.452 134.253 930.064 136.09 931.194 137.603C932.325 139.116 933.913 140.223 935.723 140.759C938.915 141.902 942.174 142.845 945.483 143.582C952.862 144.707 959.817 147.622 967.4 146.626C968.148 146.552 968.902 146.552 969.65 146.626C973.34 146.792 974.65 147.954 974.299 151.589C973.875 155.869 975.868 159.171 977.805 162.547C978.561 163.857 979.65 163.525 980.775 162.713C988.154 157.64 995.368 152.419 1002.91 147.677C1007.01 145.095 1011.45 143.084 1014.66 139.302C1015.86 137.9 1016.95 136.424 1018.1 134.985C1019.65 133.14 1021.07 133.011 1023.35 134.007C1026.66 135.428 1027.41 138.508 1028.54 141.294C1029.66 144.08 1031.53 145.814 1034.81 145.408C1036.7 145.005 1038.68 145.223 1040.43 146.031C1042.19 146.839 1043.64 148.193 1044.57 149.891C1046.21 152.622 1048.59 154.909 1050.47 157.529C1051.05 158.437 1051.33 159.499 1051.29 160.573C1051.07 162.237 1051.37 163.928 1052.14 165.419C1052.91 166.909 1054.12 168.128 1055.6 168.912C1058.18 170.369 1060.31 172.601 1062.98 174.059C1066.19 175.756 1069.73 176.826 1073.09 178.284C1074.38 178.791 1075.56 179.529 1076.58 180.46C1077.72 181.549 1078.53 181.623 1079.44 180.46C1080.34 179.298 1081.04 177.933 1082 176.771C1082.72 175.941 1083.75 174.723 1084.57 174.797C1085.73 175.13 1086.76 175.836 1087.48 176.808C1088.02 177.38 1088.09 178.357 1088.51 179.058C1089.27 180.387 1090.08 180.627 1091.15 179.206C1096.28 172.435 1101.61 165.794 1106.56 158.913C1108.22 156.168 1109.64 153.286 1110.8 150.297C1111.02 149.663 1111.34 149.07 1111.76 148.545C1112.41 147.917 1113.46 146.903 1113.92 147.087C1114.94 147.525 1115.75 148.337 1116.19 149.356C1117.47 152.958 1118.05 156.771 1117.9 160.591C1117.81 165.259 1120.98 167.694 1124.84 169.447C1127.39 170.609 1129.88 171.9 1132.48 172.952C1137.05 174.85 1142.19 174.89 1146.79 173.063C1152.14 171.058 1157.44 168.893 1162.68 166.569C1164.91 165.496 1167.06 164.262 1169.12 162.879C1170.72 161.846 1171.39 161.901 1172.4 163.912C1174.07 167.806 1176.37 171.397 1179.21 174.539C1183.92 179.085 1188.24 184.022 1192.12 189.297C1195.02 193.659 1197.45 198.315 1199.37 203.189C1202.01 209.24 1204.22 215.476 1206.59 221.638C1207.21 223.261 1207.56 225.014 1208.43 226.545C1209.32 228.318 1210.39 229.994 1211.62 231.545C1213.87 234.293 1216.47 236.766 1218.65 239.588C1221.12 243.058 1224.29 245.964 1227.97 248.111C1230.25 249.274 1232.54 250.436 1234.9 251.451C1237.27 252.465 1239.85 253.295 1242.28 254.31C1243.58 254.853 1244.81 255.527 1245.97 256.321C1248.43 258.037 1250.73 260.011 1253.22 261.634C1256.62 263.977 1258.26 263.94 1261.64 261.044C1264.26 258.793 1267.56 257.354 1269.18 253.886C1269.41 253.536 1269.72 253.248 1270.09 253.049C1270.46 252.85 1270.87 252.746 1271.29 252.746C1271.71 252.746 1272.12 252.85 1272.49 253.049C1272.86 253.248 1273.18 253.536 1273.41 253.886C1274.04 254.857 1274.6 255.875 1275.08 256.93C1276.19 259.088 1277.15 261.357 1279.84 262.04C1280.24 262.149 1280.59 262.39 1280.84 262.723C1285.1 270.102 1291.6 275.471 1297.04 281.78C1298.57 283.625 1299.22 286.115 1300.73 287.831C1303.57 290.967 1304.42 295.653 1309.1 297.424C1310.64 297.996 1311.56 300.118 1312.79 301.52C1314.03 302.922 1315.21 304.232 1316.28 305.689C1316.64 306.388 1316.89 307.143 1317 307.922C1316.26 307.922 1315.16 307.922 1314.86 307.571C1313.09 305.642 1311.55 303.519 1310.27 301.243C1310.06 300.674 1309.69 300.179 1309.2 299.827C1308.71 299.474 1308.12 299.279 1307.52 299.269C1307.08 299.236 1306.66 299.11 1306.27 298.9C1305.89 298.69 1305.55 298.401 1305.29 298.052C1303.44 294.104 1298.64 294.067 1296.34 290.857C1296.25 290.765 1296.14 290.696 1296.03 290.658C1295.91 290.619 1295.78 290.611 1295.65 290.635C1292.68 291.613 1290.25 289.99 1287.59 289.159C1285.98 288.93 1284.35 288.831 1282.72 288.864C1281.78 288.754 1280.32 288.477 1280.12 287.905C1279.31 285.691 1279 283.311 1278.28 281.042C1277.56 278.773 1276.62 276.079 1275.82 273.57C1275.03 271.061 1274.38 269.051 1273.81 266.763C1273.24 264.475 1272.82 261.616 1272.15 259.107C1271.75 257.483 1270.79 258.147 1269.9 258.83C1267.04 261.007 1264.22 263.202 1261.27 265.25C1259.83 265.979 1258.23 266.334 1256.62 266.282C1255.01 266.23 1253.43 265.774 1252.04 264.955C1249.11 262.907 1246.19 260.786 1243.11 258.959C1241.47 258.166 1239.75 257.548 1237.98 257.114L1222.54 252.152C1221.57 251.723 1220.57 251.354 1219.55 251.045C1218.78 250.892 1217.97 250.944 1217.22 251.197C1216.47 251.449 1215.8 251.893 1215.27 252.484C1213.8 253.681 1212.21 254.72 1210.51 255.583C1207.23 257.594 1203.84 259.42 1201.62 262.815C1200.41 264.66 1196.57 264.309 1195.39 262.169C1194.59 260.712 1194.08 259.114 1193.89 257.465C1193.23 251.543 1192.79 245.621 1192.21 239.699C1192.12 238.965 1191.82 238.271 1191.37 237.688C1190.12 235.875 1189.36 233.766 1189.18 231.572C1189 229.377 1189.4 227.173 1190.33 225.18C1191.97 222.136 1193.52 219.036 1194.91 215.845C1195.19 214.636 1195.32 213.396 1195.29 212.155C1196.01 206.621 1193.82 202.027 1191.61 197.156C1188.28 189.906 1182.58 184.556 1177.64 178.708C1174.08 174.711 1171.17 170.171 1169.04 165.259L1163.01 168.838C1164.85 170.185 1164.85 171.439 1163.56 173.063C1163.01 173.764 1163.21 175.129 1163.19 176.199C1163.19 178.394 1163.19 180.59 1163.19 182.785L1161.74 183.744C1161.39 182.982 1161.1 182.2 1160.85 181.401C1160.22 179.003 1159.54 176.623 1159.14 174.206C1158.66 171.365 1156.87 170.517 1154.28 171.753C1150.94 173.284 1147.29 174.206 1143.97 175.775C1137.46 178.837 1132.03 175.885 1126.5 173.136C1125.27 172.428 1123.97 171.87 1122.61 171.476C1121.94 171.328 1120.56 171.937 1120.41 172.472C1119.29 176.42 1119.03 180.036 1121.8 183.855C1124.44 187.951 1126.71 192.273 1128.58 196.769C1130.04 199.795 1131.81 202.728 1131.7 206.362C1131.7 207.285 1132.86 208.207 1133.07 209.203C1133.83 212.265 1134.31 215.39 1134.51 218.538C1134.6 226.822 1134.32 235.142 1134.23 243.425C1134.23 245.621 1134.53 247.835 1134.43 250.03C1134.43 250.86 1133.71 251.672 1133.33 252.502C1132.46 251.986 1131.13 251.654 1130.82 250.916C1129.53 247.706 1128.57 244.348 1127.42 241.064C1126.08 237.171 1124.62 233.297 1123.35 229.368C1122.59 227.098 1122.13 224.719 1121.5 222.413C1120.79 219.436 1119.83 216.524 1118.64 213.705C1118.44 214.377 1118.32 215.071 1118.27 215.771C1118.64 223.15 1118.79 230.53 1119.6 237.909C1120.19 242.249 1121.27 246.508 1122.83 250.602C1123.42 252.244 1125.36 253.443 1126.8 254.698C1129.05 256.69 1129.34 258.387 1127.18 260.417C1125.45 262.095 1123.29 263.313 1121.48 264.918C1120.58 265.711 1119.19 267.316 1119.45 267.851C1120.27 269.153 1121.41 270.225 1122.76 270.969C1123.94 271.537 1125.18 272 1126.44 272.353C1126.91 272.458 1127.34 272.68 1127.69 272.996C1128.04 273.312 1128.31 273.713 1128.47 274.161C1128.62 274.609 1128.67 275.089 1128.59 275.557C1128.51 276.025 1128.31 276.465 1128.01 276.836C1127.21 278.363 1126.05 279.675 1124.63 280.667C1123.22 281.658 1121.59 282.299 1119.88 282.536C1118.89 282.678 1117.95 283.029 1117.11 283.567C1116.27 284.105 1115.56 284.817 1115.03 285.654C1112.37 289.344 1110.32 289.123 1108.29 285.101C1107.83 284.377 1107.31 283.698 1106.72 283.071C1106.39 283.92 1106.02 284.75 1105.73 285.617C1105.48 286.82 1105.12 287.994 1104.64 289.123C1104.44 289.539 1104.13 289.891 1103.74 290.142C1103.35 290.392 1102.9 290.531 1102.44 290.542C1101.98 290.554 1101.52 290.438 1101.12 290.207C1100.72 289.976 1100.39 289.639 1100.17 289.233C1098.5 286.208 1097.11 283.016 1095.6 279.898C1095.36 279.505 1095.1 279.128 1094.81 278.773L1094.23 278.662ZM828.888 157.344C832.135 155.315 832.356 152.124 832.965 149.43C833.36 146.693 833.422 143.917 833.149 141.165C833.149 138.656 832.78 136.184 834.496 133.989C835.411 132.698 836.261 131.361 837.042 129.985C838.555 127.476 837.651 125.797 834.773 125.705C833.352 125.705 831.914 125.594 830.511 125.705C827.006 125.927 825.586 127.347 825.18 130.76C825.088 131.406 824.663 131.996 824.552 132.605C823.959 134.387 823.69 136.262 823.759 138.14C824.479 141.829 825.789 145.519 826.822 149.209C827.357 151.054 827.836 152.898 828.316 154.854C828.5 155.555 828.63 156.256 828.888 157.344Z" fill="#E3D8CB" fill-opacity="0.35"/>
</svg>
