<svg width="105" height="80" viewBox="0 0 105 80" fill="none" xmlns="http://www.w3.org/2000/svg">
<mask id="mask0_187_288" style="mask-type:alpha" maskUnits="userSpaceOnUse" x="34" y="0" width="35" height="41">
<path fill-rule="evenodd" clip-rule="evenodd" d="M49.8544 0C41.6973 0 34.7562 5.87714 34.7562 14.2369C34.7562 20.722 39.0121 25.8898 42.4573 31.0576L48.7398 40.5826H57.0488L46.6118 24.7752C44.5346 21.6339 41.6973 18.2394 41.6973 14.2875C41.6973 9.72768 45.4972 6.9411 49.8544 6.9411H61.558C61.558 18.1381 61.558 29.3857 61.558 40.5826H68.4991V0C61.406 0 56.9475 0 49.8544 0Z" fill="white"/>
</mask>
<g mask="url(#mask0_187_288)">
<path d="M68.4484 0H34.7562V40.5826H68.4484V0Z" fill="url(#paint0_linear_187_288)"/>
</g>
<path d="M69.4618 59.6328H63.7873V62.0141H69.4618V59.6328Z" fill="#2D5328"/>
<mask id="mask1_187_288" style="mask-type:alpha" maskUnits="userSpaceOnUse" x="33" y="14" width="36" height="27">
<path fill-rule="evenodd" clip-rule="evenodd" d="M33.5909 40.5826H41.9C44.9399 35.9721 47.9798 31.3616 51.0197 26.7511L60.1394 40.5826H68.4484L51.0197 14.1355C45.2439 22.9512 39.4174 31.7669 33.5909 40.5826Z" fill="white"/>
</mask>
<g mask="url(#mask1_187_288)">
<path d="M68.4484 14.1355H33.5909V40.5826H68.4484V14.1355Z" fill="url(#paint1_linear_187_288)"/>
</g>
<path d="M101.938 65.1046C102.799 64.6486 103.407 63.9899 103.914 63.1286C104.37 62.2673 104.623 61.2034 104.623 59.9874V56.2889V55.5796V52.6917H101.786V55.5796C101.786 55.9342 101.786 56.2382 101.786 56.5929C101.786 57.4035 101.634 58.2648 101.026 58.9234C100.519 59.4301 99.8607 59.6834 98.9994 59.6834C98.1381 59.6834 97.4288 59.4301 96.9728 58.9234C96.4662 58.4168 96.2129 57.6568 96.2129 56.6435V52.7423H93.4263V56.3395C93.4263 57.5555 93.6796 58.6195 94.1356 59.4808C94.5916 60.3421 95.2502 61.0007 96.1115 61.4567C96.9728 61.9127 97.9355 62.1153 99.0501 62.1153C100.013 62.1153 100.874 61.9633 101.634 61.6087C101.533 62.014 101.33 62.3687 101.077 62.622C100.57 63.1286 99.9114 63.382 99.1008 63.382H94.4396H94.3889V65.7632C94.4903 65.7632 94.5916 65.7632 94.6929 65.7632H99.0501C100.013 65.8139 101.026 65.6112 101.938 65.1046Z" fill="#2D5328"/>
<path d="M44.9906 59.6328V58.0621C44.9906 57.0488 44.7372 56.2889 44.2306 55.7822C43.7239 55.2756 43.0653 55.0222 42.204 55.0222C41.3427 55.0222 40.6334 55.2756 40.1774 55.7822C39.6707 56.2889 39.4174 57.0488 39.4174 58.0621V59.6328H44.9906ZM42.2546 52.5903C43.3693 52.5903 44.3826 52.793 45.1932 53.249C46.0545 53.705 46.6625 54.3636 47.1691 55.2249C47.6251 56.0862 47.8785 57.1502 47.8785 58.3661V65.0539H45.0412V62.1153H39.4681V65.0539H36.6815V58.3661C36.6815 57.1502 36.9348 56.0862 37.3908 55.2249C37.8468 54.3636 38.5054 53.705 39.3667 53.249C40.1267 52.793 41.0894 52.5903 42.2546 52.5903Z" fill="#2D5328"/>
<path d="M30.095 55.1742L30.1457 65.0032H27.3085V52.793H35.9215V55.1742H30.095Z" fill="#2D5328"/>
<path d="M25.0286 52.793V65.0032H22.242V62.014H16.6688V65.0032H13.8316V52.793H16.6688V59.6327H22.242V52.793H25.0286Z" fill="#2D5328"/>
<path d="M1.72264 54.0089C2.53328 53.249 3.64791 52.793 4.86387 52.793H11.501V65.0032C10.589 65.0032 9.57571 65.0032 8.66374 65.0032C8.66374 61.862 8.66374 58.7714 8.66374 55.6302H4.9652C4.10389 55.6302 3.34392 56.0862 3.34392 56.9982C3.34392 57.6568 3.74924 58.3155 4.15456 58.9234L5.72517 61.3554L3.29325 65.0539H3.05176e-05L2.38128 61.406L1.51998 60.0381C0.861335 59.0754 0.456015 58.1128 0.456015 56.9475C0.456015 55.7315 0.962665 54.7182 1.72264 54.0089Z" fill="#2D5328"/>
<path d="M61.3553 52.793V65.0032H58.5181V62.014H52.9956V65.0032H50.1584V52.793H52.9956V59.6327H58.5181V52.793H61.3553Z" fill="#2D5328"/>
<path d="M78.3788 56.1874C77.3148 55.5795 76.2002 55.1741 75.0349 55.0221V65.0031H72.1977V55.0221C70.9817 55.1741 69.8671 55.5795 68.8031 56.1874L67.8405 54.0595C68.7018 53.5529 69.5631 53.1982 70.5764 52.9449C71.539 52.6915 72.5523 52.5396 73.6163 52.5396C74.6803 52.5396 75.6936 52.6915 76.6562 52.9449C77.6188 53.1982 78.5308 53.6035 79.3921 54.0595L78.3788 56.1874Z" fill="#2D5328"/>
<path d="M88.7651 59.6328V58.0621C88.7651 57.0488 88.5118 56.2889 88.0051 55.7822C87.4985 55.2756 86.8398 55.0222 85.9785 55.0222C85.1172 55.0222 84.4079 55.2756 83.9519 55.7822C83.4453 56.2889 83.192 57.0488 83.192 58.0621V59.6328H88.7651ZM85.9785 52.5903C87.0932 52.5903 88.1065 52.793 88.9171 53.249C89.7784 53.705 90.3864 54.3636 90.893 55.2249C91.349 56.0862 91.6024 57.1502 91.6024 58.3661V65.0539H88.7651V62.1153H83.192V65.0539H80.4054V58.3661C80.4054 57.1502 80.6587 56.0862 81.1147 55.2249C81.5707 54.3636 82.2293 53.705 83.0906 53.249C83.8506 52.793 84.8639 52.5903 85.9785 52.5903Z" fill="#2D5328"/>
<path d="M73.7683 74.5789C74.7309 74.5789 75.2375 74.9843 75.2375 75.8456C75.2375 76.6562 74.7309 77.1122 73.9203 77.1122H73.3123V74.5789H73.7683ZM73.3123 77.8215H73.9709C74.5789 77.8215 75.1362 77.6188 75.4909 77.2642C75.8455 76.9095 76.0988 76.4029 76.0988 75.8456C76.0988 75.2376 75.8962 74.7816 75.4909 74.4269C75.0856 74.0723 74.5282 73.8696 73.8189 73.8696H72.5523V79.8988H73.3123V77.8215Z" fill="#113D23"/>
<path d="M66.4218 79.2907C65.0032 79.2907 64.1419 78.2267 64.1419 76.8588C64.1419 75.3895 65.1046 74.4268 66.4218 74.4268C67.7391 74.4268 68.7524 75.4401 68.7524 76.8588C68.7524 78.2267 67.8405 79.2907 66.4218 79.2907ZM66.4218 80C68.2458 80 69.5631 78.6827 69.5631 76.8588C69.5631 75.0348 68.2458 73.7175 66.4218 73.7175C64.5979 73.7175 63.2806 75.0348 63.2806 76.8588C63.3313 78.6827 64.6486 80 66.4218 80Z" fill="#113D23"/>
<path d="M58.9234 74.5789C60.95 74.5789 60.8487 77.1122 59.0247 77.1122H58.4168V74.5789H58.9234ZM58.4168 77.8215H59.0754C59.6834 77.8215 60.2407 77.6188 60.5954 77.2642C61.3553 76.5549 61.406 75.1362 60.5954 74.4269C60.19 74.0723 59.6327 73.8696 58.9234 73.8696H57.6568V79.8988H58.4168V77.8215Z" fill="#113D23"/>
<path d="M37.0868 79.2907C35.6682 79.2907 34.8069 78.2267 34.8069 76.8588C34.8069 75.3895 35.7695 74.4268 37.0868 74.4268C38.4041 74.4268 39.4174 75.4401 39.4174 76.8588C39.3668 78.2267 38.4548 79.2907 37.0868 79.2907ZM37.0868 80C38.9108 80 40.2281 78.6827 40.2281 76.8588C40.2281 75.0348 38.9108 73.7175 37.0868 73.7175C35.2629 73.7175 33.9456 75.0348 33.9456 76.8588C33.9456 78.6827 35.2629 80 37.0868 80Z" fill="#113D23"/>
<path d="M80.8614 74.5789H82.3813V73.8696H78.5308V74.5789H80.0507V79.8988H80.8614V74.5789Z" fill="#113D23"/>
<path d="M31.3617 79.1895H28.9804V77.1629H31.3617V76.4535H28.9804V74.5789H31.3617V73.8696H28.2204V79.8988H31.3617V79.1895Z" fill="#113D23"/>
<path d="M52.2357 77.4162C52.6917 76.2509 53.2996 74.9843 53.857 73.8696H54.7183L51.8304 79.8988H51.0197L51.7797 78.2268L49.6011 73.8696H50.5131C51.0704 75.0349 51.6784 76.2509 52.2357 77.4162Z" fill="#113D23"/>
<path d="M44.4332 76.8587L47.2198 79.848H46.1052C45.2945 78.936 44.4839 78.0747 43.6732 77.1627C43.6732 78.0747 43.6732 78.936 43.6732 79.848H42.8626V73.8188H43.6732C43.6732 74.7308 43.6732 75.6935 43.6732 76.6054L46.1052 73.8188H47.1185L44.4332 76.8587Z" fill="#113D23"/>
<path d="M23.002 74.5789H25.0286V73.8696H22.1913V79.8988H23.002V74.5789Z" fill="#113D23"/>
<defs>
<linearGradient id="paint0_linear_187_288" x1="51.6178" y1="0" x2="51.6178" y2="35.3084" gradientUnits="userSpaceOnUse">
<stop stop-color="#8A74B2"/>
<stop offset="1" stop-color="#605294"/>
</linearGradient>
<linearGradient id="paint1_linear_187_288" x1="51.0602" y1="40.5958" x2="50.9994" y2="0.0283362" gradientUnits="userSpaceOnUse">
<stop stop-color="#E31F25"/>
<stop offset="1" stop-color="#F39425"/>
</linearGradient>
</defs>
</svg>
