<svg width="186" height="35" viewBox="0 0 186 35" fill="none" xmlns="http://www.w3.org/2000/svg">
<path d="M136.88 18.0291H129.019V21.4057H136.88V18.0291Z" fill="#2D5328"/>
<path d="M182.159 25.8018C183.309 25.1842 184.249 24.2291 184.857 23.061C185.534 21.7038 185.868 20.1967 185.828 18.6757V8.3374H181.9V13.819C181.986 15.012 181.611 16.1919 180.854 17.108C180.066 17.8095 179.055 18.1963 178.008 18.1963C176.96 18.1963 175.949 17.8095 175.161 17.108C174.478 16.3771 174.134 15.2954 174.131 13.8628V8.3374H170.246V13.3914C170.202 14.9217 170.536 16.4388 171.217 17.8041C171.825 18.9723 172.765 19.9273 173.915 20.5449C175.186 21.1941 176.594 21.516 178.016 21.4823C179.259 21.5044 180.493 21.2656 181.641 20.7806C181.488 21.3181 181.211 21.8105 180.832 22.2168C180.471 22.5807 180.041 22.8657 179.568 23.0543C179.095 23.2428 178.588 23.3309 178.08 23.3131H171.541V26.7062H171.989H178.032C179.462 26.7411 180.88 26.4193 182.159 25.7689" fill="#2D5328"/>
<path d="M102.904 18.0344V15.7815C102.904 14.3489 102.557 13.2672 101.863 12.5363C101.075 11.8348 100.064 11.448 99.0167 11.448C97.9694 11.448 96.9579 11.8348 96.1705 12.5363C95.4871 13.2672 95.1436 14.3489 95.14 15.7815V18.0344H102.904ZM99.0464 8.04144C100.468 8.00803 101.875 8.32792 103.147 8.9733C104.297 9.59088 105.237 10.546 105.845 11.7141C106.526 13.0814 106.86 14.6003 106.816 16.1323V25.5716H102.883V21.4165H95.1184V25.599H91.2336V16.1542C91.1893 14.6222 91.5232 13.1033 92.2048 11.736C92.8127 10.5679 93.7528 9.61282 94.9026 8.99523C96.1854 8.33524 97.6088 8.0076 99.0464 8.04144Z" fill="#2D5328"/>
<path d="M82.1905 11.7142L82.212 25.5936H78.3057V8.33203H90.2838V11.7142H82.1905Z" fill="#2D5328"/>
<path d="M75.1224 8.33203V25.5936H71.189V21.4111H63.4733V25.5936H59.54V8.33203H63.4733V18.0345H71.189V8.33203H75.1224Z" fill="#2D5328"/>
<path d="M42.6844 10.0423C43.8689 8.93027 45.426 8.31868 47.0387 8.332H56.3136V25.5881H52.3803V12.3171H47.1736C45.9596 12.3171 44.9452 12.9311 44.9452 14.2576C44.9452 15.1785 45.5117 16.1049 46.089 16.96L48.2958 20.3751L44.9398 25.5935H40.2888L43.6125 20.4573L42.4201 18.621C41.4981 17.3465 40.9805 15.8167 40.9363 14.2357C40.9298 13.4466 41.0842 12.6648 41.3897 11.9393C41.6952 11.2138 42.1452 10.5605 42.7114 10.0203" fill="#2D5328"/>
<path d="M125.652 8.33203V25.5936H121.718V21.4111H113.997V25.5936H110.069V8.33203H113.997V18.0345H121.718V8.33203H125.652Z" fill="#2D5328"/>
<path d="M149.398 13.1942C147.953 12.3465 146.361 11.7882 144.709 11.5497V25.6265H140.781V11.5168C139.123 11.7579 137.524 12.3159 136.071 13.1613L134.738 10.1793C135.916 9.4679 137.188 8.92903 138.515 8.57869C139.887 8.21354 141.299 8.02931 142.718 8.03053C144.147 8.02867 145.57 8.21289 146.953 8.57869C148.282 8.92285 149.555 9.46207 150.73 10.1793L149.398 13.1942Z" fill="#2D5328"/>
<path d="M163.804 18.0344V15.7814C163.804 14.3489 163.457 13.2672 162.762 12.5363C161.975 11.8348 160.964 11.448 159.916 11.448C158.869 11.448 157.857 11.8348 157.07 12.5363C156.379 13.2709 156.04 14.3508 156.04 15.7814V18.0344H163.804ZM159.946 8.04144C161.367 8.00802 162.775 8.32791 164.047 8.9733C165.196 9.59088 166.136 10.546 166.744 11.7141C167.426 13.0814 167.76 14.6003 167.716 16.1323V25.5716H163.804V21.4165H156.04V25.599H152.155V16.1542C152.11 14.6222 152.444 13.1033 153.126 11.736C153.734 10.5679 154.674 9.61281 155.824 8.99523C157.1 8.33876 158.516 8.01121 159.946 8.04144Z" fill="#2D5328"/>
<path fill-rule="evenodd" clip-rule="evenodd" d="M13.7857 0C6.86858 0 0.976624 5.07047 0.976624 12.2952C0.976624 17.8919 4.60783 22.343 7.52143 26.7776L12.8415 35H19.8934L11.0447 21.3618C9.28039 18.621 6.86317 15.7267 6.86317 12.3117C6.86317 8.38137 10.1005 5.99687 13.7857 5.99687H23.7027V35H29.5893V0H13.7857Z" fill="#334D89"/>
<path fill-rule="evenodd" clip-rule="evenodd" d="M0 34.9836H7.04659L14.7946 23.0612L22.5373 35.0001H29.5892L14.7946 12.1912L0 35.0001" fill="#E32126"/>
</svg>
