<svg width="38" height="38" viewBox="0 0 38 38" fill="none" xmlns="http://www.w3.org/2000/svg">
<path d="M38 19C38 8.50659 29.4934 0 19 0C8.50659 0 0 8.50659 0 19C0 29.4934 8.50659 38 19 38C29.4934 38 38 29.4934 38 19Z" fill="#FAEDDD"/>
<path d="M11.0999 18.7083C15.3949 16.8371 18.2589 15.6034 19.6919 15.0074C23.7834 13.3056 24.6335 13.01 25.1877 13.0001C25.3095 12.9981 25.582 13.0283 25.7586 13.1715C25.9076 13.2924 25.9486 13.4558 25.9683 13.5705C25.9879 13.6851 26.0123 13.9464 25.9929 14.1505C25.7712 16.4801 24.8118 22.1335 24.3237 24.7427C24.1172 25.8468 23.7105 26.217 23.3168 26.2532C22.4613 26.3319 21.8116 25.6878 20.9829 25.1446C19.6862 24.2946 18.9537 23.7654 17.695 22.936C16.2404 21.9774 17.1834 21.4506 18.0124 20.5896C18.2293 20.3643 21.999 16.9355 22.0719 16.6244C22.0811 16.5855 22.0895 16.4405 22.0034 16.3639C21.9172 16.2874 21.7901 16.3136 21.6983 16.3344C21.5683 16.3639 19.4968 17.7331 15.4839 20.4419C14.8959 20.8457 14.3633 21.0424 13.8862 21.0321C13.3601 21.0207 12.3482 20.7346 11.596 20.4901C10.6733 20.1902 9.94002 20.0316 10.0039 19.5223C10.0371 19.257 10.4025 18.9856 11.0999 18.7083Z" fill="#E31F25"/>
</svg>
