<svg width="38" height="38" viewBox="0 0 38 38" fill="none" xmlns="http://www.w3.org/2000/svg">
<path d="M38 19C38 8.50659 29.4934 0 19 0C8.50659 0 0 8.50659 0 19C0 29.4934 8.50659 38 19 38C29.4934 38 38 29.4934 38 19Z" fill="#FAEDDD"/>
<path d="M11 18.68C11 15.0587 11 13.2507 12.12 12.12C13.256 11 15.064 11 18.68 11H19.32C22.9413 11 24.7493 11 25.88 12.12C27 13.256 27 15.064 27 18.68V19.32C27 22.9413 27 24.7493 25.88 25.88C24.744 27 22.936 27 19.32 27H18.68C15.0587 27 13.2507 27 12.12 25.88C11 24.744 11 22.936 11 19.32V18.68Z" fill="#E31F25"/>
<path d="M19.512 22.5256C15.864 22.5256 13.784 20.0296 13.6987 15.8696H15.5333C15.592 18.9203 16.936 20.2109 18.0027 20.4776V15.8696H19.7253V18.4989C20.776 18.3869 21.8853 17.1869 22.2587 15.8643H23.976C23.836 16.5489 23.5563 17.1974 23.1543 17.7691C22.7524 18.3408 22.2369 18.8234 21.64 19.1869C22.3061 19.5185 22.8943 19.9874 23.366 20.5629C23.8376 21.1384 24.1818 21.8073 24.376 22.5256H22.4827C22.0773 21.2616 21.064 20.2803 19.7253 20.1469V22.5256H19.5173H19.512Z" fill="#FAEDDD"/>
</svg>
